<svg xmlns="http://www.w3.org/2000/svg" viewBox="0 0 512 512"><!--! Font Awesome Pro 6.1.2 by @fontawesome - https://fontawesome.com License - https://fontawesome.com/license (Commercial License) Copyright 2022 Fonticons, Inc. --><defs>
<style>.fa-secondary{opacity:.4;fill: #469655} path{fill:#8288FF}
</style></defs><path class="fa-primary" d="
M143.1 128h192C344.8 128 352 135.2 352 144C352 152.8 344.8 160 336 160H143.1C135.2 160 128 152.8 128 144C128 135.2 135.2 128 143.1 128z
M143.1 192h192C344.8 192 352 199.2 352 208C352 216.8 344.8 224 336 224H143.1C135.2 224 128 216.8 128 208C128 199.2 135.2 192 143.1 192z
M384 384v96l96-96H384zM0 360v-240C0 53.83 53.83 0 120 0h240C373.3 0 384 10.75 384 24S373.3 48 360 48h-240C80.3 48 48 80.3 48 120v240C48 373.3 37.25 384 24 384S0 373.3 0 360z"/><path class="fa-secondary" d="M432 95.1h-288c-26.51 0-48 21.49-48 47.1v288C96 458.5 117.5 480 144 480H384v-96h96V143.1C480 117.5 458.5 95.1 432 95.1z"/></svg>